<?xml version="1.0" encoding="UTF-8"?>
<svg xmlns="http://www.w3.org/2000/svg" xmlns:xlink="http://www.w3.org/1999/xlink" width="22px" height="22px" viewBox="0 0 22 22" version="1.1">
<g id="surface1">
<path style=" stroke:none;fill-rule:nonzero;fill:#128c7e;fill-opacity:1;" d="M 5.1875 4.769531 C 5.273438 3.722656 6.160156 2.902344 7.210938 2.902344 C 7.265625 2.902344 7.320312 2.902344 7.378906 2.90625 C 8.496094 3 9.332031 3.980469 9.242188 5.097656 C 9.15625 6.148438 8.265625 6.96875 7.214844 6.96875 C 7.160156 6.96875 7.105469 6.964844 7.050781 6.960938 C 5.933594 6.871094 5.097656 5.886719 5.1875 4.769531 Z M 5.90625 7.789062 L 5.316406 10.570312 L 6.792969 10.773438 L 6.808594 10.121094 C 6.808594 10.117188 6.808594 10.117188 6.808594 10.113281 L 6.855469 8.054688 C 6.519531 8.015625 6.199219 7.925781 5.90625 7.789062 Z M 7.964844 7.984375 L 7.917969 9.988281 L 9.039062 9.8125 L 8.519531 7.785156 C 8.34375 7.867188 8.15625 7.933594 7.964844 7.984375 Z M 19.644531 0.554688 L 19.644531 17.109375 C 19.644531 17.113281 19.644531 17.117188 19.644531 17.121094 C 19.644531 17.152344 19.640625 17.183594 19.636719 17.214844 C 19.632812 17.21875 19.632812 17.222656 19.632812 17.226562 C 19.625 17.253906 19.617188 17.28125 19.609375 17.308594 C 19.605469 17.316406 19.601562 17.324219 19.597656 17.332031 C 19.585938 17.355469 19.578125 17.375 19.5625 17.394531 C 19.558594 17.402344 19.554688 17.414062 19.550781 17.421875 C 19.53125 17.445312 19.511719 17.472656 19.488281 17.496094 L 15.265625 21.832031 C 15.238281 21.859375 15.210938 21.882812 15.179688 21.90625 C 15.164062 21.914062 15.148438 21.921875 15.132812 21.929688 C 15.117188 21.9375 15.101562 21.949219 15.082031 21.957031 C 15.066406 21.964844 15.046875 21.96875 15.027344 21.972656 C 15.011719 21.980469 14.996094 21.984375 14.976562 21.988281 C 14.945312 21.996094 14.910156 22 14.875 22 C 14.875 22 14.871094 22 14.867188 22 L 2.90625 22 C 2.601562 22 2.355469 21.753906 2.355469 21.445312 L 2.355469 0.554688 C 2.355469 0.246094 2.601562 0 2.90625 0 L 19.09375 0 C 19.398438 0 19.644531 0.246094 19.644531 0.554688 Z M 11.46875 3.394531 C 11.46875 3.699219 11.71875 3.949219 12.023438 3.949219 L 16.980469 3.949219 C 17.285156 3.949219 17.535156 3.699219 17.535156 3.394531 C 17.535156 3.089844 17.285156 2.84375 16.980469 2.84375 L 12.023438 2.84375 C 11.71875 2.84375 11.46875 3.089844 11.46875 3.394531 Z M 11.46875 5.746094 C 11.46875 6.050781 11.71875 6.300781 12.023438 6.300781 L 16.980469 6.300781 C 17.285156 6.300781 17.535156 6.050781 17.535156 5.746094 C 17.535156 5.441406 17.285156 5.191406 16.980469 5.191406 L 12.023438 5.191406 C 11.71875 5.191406 11.46875 5.441406 11.46875 5.746094 Z M 11.46875 8.097656 C 11.46875 8.402344 11.71875 8.648438 12.023438 8.648438 L 16.980469 8.648438 C 17.285156 8.648438 17.535156 8.402344 17.535156 8.097656 C 17.535156 7.789062 17.285156 7.542969 16.980469 7.542969 L 12.023438 7.542969 C 11.71875 7.542969 11.46875 7.789062 11.46875 8.097656 Z M 4.578125 11.585938 L 7.257812 11.953125 C 7.28125 11.957031 7.308594 11.957031 7.332031 11.957031 C 7.464844 11.957031 7.589844 11.914062 7.691406 11.828125 C 7.8125 11.722656 7.882812 11.574219 7.886719 11.417969 L 7.894531 11.113281 L 9.8125 10.8125 C 9.964844 10.789062 10.101562 10.699219 10.1875 10.570312 C 10.273438 10.441406 10.300781 10.28125 10.261719 10.128906 L 9.484375 7.09375 C 9.964844 6.589844 10.285156 5.925781 10.34375 5.1875 C 10.484375 3.460938 9.191406 1.945312 7.46875 1.804688 C 7.382812 1.796875 7.296875 1.792969 7.210938 1.792969 C 5.589844 1.792969 4.214844 3.0625 4.085938 4.679688 C 4.011719 5.597656 4.339844 6.457031 4.925781 7.082031 L 4.113281 10.921875 C 4.082031 11.074219 4.113281 11.230469 4.203125 11.355469 C 4.289062 11.480469 4.425781 11.5625 4.578125 11.585938 Z M 16.980469 14.699219 C 17.285156 14.699219 17.535156 14.449219 17.535156 14.144531 C 17.535156 13.839844 17.285156 13.589844 16.980469 13.589844 L 4.960938 13.589844 C 4.65625 13.589844 4.410156 13.839844 4.410156 14.144531 C 4.410156 14.449219 4.65625 14.699219 4.960938 14.699219 Z M 17.78125 17.664062 L 15.421875 17.664062 L 15.421875 20.085938 Z M 17.78125 17.664062 "/>
</g>
</svg>
